PathFileType	4	(X/Y/Z)	C:/Users/beibeiliu/ov580/test_trc/User2\sequence.12_training_dense_right.trc
DataRate	CameraRate	NumFrames	NumMarkers	Units	OrigDataRate	OrigDataStartFrame	OrigNumFrames
120	120	22	19	mm	120	74	98
Frame#	Time	ThumbCMC			ThumbMCP			ThumbIP			ThumbTip			IndexMCP			IndexPIP			IndexTip			MiddleMCP			MiddlePIP			MiddleTip			RingMCP			RingPIP			RingTip			PinkyMCP			PinkyPIP			PinkyTip			BackHand1			BackHand2			BackHand3	
		X0	Y0	Z0	X1	Y1	Z1	X2	Y2	Z2	X3	Y3	Z3	X4	Y4	Z4	X5	Y5	Z5	X6	Y6	Z6	X7	Y7	Z7	X8	Y8	Z8	X9	Y9	Z9	X10	Y10	Z10	X11	Y11	Z11	X12	Y12	Z12	X13	Y13	Z13	X14	Y14	Z14	X15	Y15	Z15	X16	Y16	Z16	X17	Y17	Z17	X18	Y18	Z18	
73	0.608333	145.381	41.8042	-30.4943	116.264	62.0461	-38.4946	85.7913	62.4994	-55.5228	64.5889	53.1999	-69.5088	126.244	22.2196	-108.351	100.682	26.7091	-128.632	70.3907	23.2327	-131.567	123.151	-6.50242	-113.237	95.1459	-11.1453	-130.444	57.7384	-9.85413	-130.121	120.571	-30.7158	-99.6974	92.3508	-40.5269	-116.994	59.7229	-35.8966	-118.757	114.479	-53.6205	-73.6859	86.934	-65.836	-83.5984	58.6619	-67.4678	-91.8424	156.148	-23.0596	-57.485	175.91	-21.1753	-27.886	168.994	13.4486	-46.8911	
74	0.616667	160.822	39.8403	-34.8261	136.607	63.2671	-46.9861	109.868	76.0568	-60.5633	84.5217	71.7453	-72.6381	130.149	21.6414	-110.337	104.457	30.0866	-131.236	74.3888	34.0903	-130.682	117.329	-5.5913	-112.406	85.3628	-4.27915	-128.149	52.9559	5.74655	-126.476	109.151	-28.1209	-95.3918	75.4641	-27.9266	-110.271	50.4307	-17.0085	-112.123	98.7811	-44.2004	-67.9044	66.8768	-47.2045	-76.4175	41.6861	-40.0253	-82.6065	147.947	-29.9074	-57.7007	171.423	-29.1382	-28.7912	171.965	3.42997	-55.3179	
75	0.625	173.51	34.9341	-43.096	158.082	63.418	-53.5522	133.718	82.4918	-68.6825	105.03	85.558	-83.5339	133.337	18.299	-115.705	111.091	29.8721	-134.247	84.4013	46.3135	-136.074	118.639	-5.34287	-111.486	85.418	3.4164	-130.833	52.3894	22.367	-128.222	98.0069	-24.064	-95.7143	75.2384	-18.0298	-107.643	46.6499	-0.0776522	-110.149	91.2125	-33.8473	-63.9602	63.0016	-31.7061	-69.7791	35.3828	-20.9112	-76.5992	141.919	-31.95	-56.7752	165.054	-34.1952	-29.7524	175.251	-5.06091	-59.9799	
76	0.633333	182.755	28.177	-47.7354	168.151	58.4309	-65.7254	147.943	78.7646	-80.1408	123.318	87.9403	-93.5463	141.27	8.50982	-117.283	123.515	25.054	-141.709	92.2745	44.523	-142.822	121.32	-10.9172	-116.266	90.5672	-1.97636	-135.516	64.7118	21.2784	-137.695	103.67	-22.5941	-96.8372	74.0952	-15.833	-112.534	52.0412	4.22252	-117.343	90.9489	-28.0595	-67.6446	63.6738	-23.6001	-74.6485	38.4679	-9.92525	-85.0179	144.549	-31.3479	-54.3864	161.45	-40.3239	-32.7003	178.309	-13.6626	-57.0434	
77	0.641667	190.075	23.7367	-52.9532	176.912	50.357	-68.0244	160.236	72.2889	-89.2777	135.243	80.6352	-104.327	154.01	2.10108	-127.697	134.271	13.8603	-148.766	107.165	32.6946	-152.396	130.251	-21.2277	-120.868	106.653	-12.1918	-144.271	75.5392	8.82389	-149.071	107.54	-32.6954	-103.455	88.7636	-23.9237	-120.806	66.2899	-4.61848	-131.025	94.7114	-33.2304	-70.5352	67.1369	-27.1152	-82.4142	43.9115	-12.5138	-93.5065	146.995	-35.2588	-59.1845	162.822	-41.7515	-32.6466	180.138	-19.8646	-59.6292	
78	0.65	197.066	21.2744	-53.4682	185.788	47.8758	-71.8302	166.986	67.9352	-101.421	142.027	67.3238	-114.449	166.736	-7.9491	-125.796	152.457	2.56212	-155.424	124.018	20.0196	-161.95	147.783	-30.9251	-121.738	121.374	-29.141	-149.302	94.5202	-7.71556	-161.678	123.331	-41.658	-107.508	100.258	-38.8394	-128.486	79.8064	-18.5686	-142.136	104.056	-41.6866	-80.8451	80.8013	-38.737	-91.6449	60.7542	-27.4597	-108.308	158.659	-41.5161	-61.1854	176.044	-43.5052	-32.3478	189.453	-22.5848	-61.1548	
79	0.658333	199.361	23.2607	-55.3052	188.563	47.3323	-76.6406	171.31	61.8318	-99.0449	149.543	60.7818	-119.869	183.583	-10.0261	-132.126	165.877	-6.26531	-159.238	143.083	13.1191	-169.689	166.759	-35.7463	-126.016	145.023	-37.4971	-155.321	113.625	-17.4876	-173.176	144.919	-46.8256	-110.964	123.229	-48.7681	-137.34	98.552	-32.2907	-153.884	120.276	-52.2833	-87.0423	100.822	-49.7292	-106.093	75.4934	-43.9521	-120.927	171.5	-43.5319	-61.4537	184.861	-42.8001	-34.753	200.47	-19.2841	-58.6557	
80	0.666667	201.446	25.7525	-53.8285	186.688	48.0163	-79.6716	170.329	60.9491	-104.83	151.3	60.4327	-127.149	197.742	-12.6677	-131.874	185.632	-6.43216	-161.265	158.15	6.12526	-174.341	184.409	-38.6514	-129.201	166.592	-43.0606	-160.348	139.813	-27.9094	-180.356	165.705	-53.0111	-115.367	149.352	-56.2822	-141.988	125.428	-45.0872	-163.741	142.382	-59.3606	-95.3572	118.424	-63.9716	-115.125	96.3847	-58.0259	-133.59	185.817	-43.334	-63.8237	193.58	-41.6028	-34.159	209.161	-15.5418	-57.5199	
81	0.675	198.24	30.3764	-52.9484	181.031	48.9535	-77.0462	165.981	61.2669	-104.927	149.976	51.5677	-126.01	213.237	-1.54722	-130.71	201.276	1.05745	-160.753	172.071	8.71404	-176.949	204.746	-35.7689	-131.852	188.427	-38.1259	-164.883	162.367	-27.2712	-184.804	187.648	-53.6067	-120.265	175.575	-56.317	-149.968	149.877	-51.8678	-170.084	163.127	-64.7861	-101.937	143.775	-72.5185	-122.589	126.452	-70.5067	-143.241	198.694	-40.8265	-62.5114	203.075	-41.322	-31.766	215.432	-12.6094	-55.7027	
82	0.683333	190.508	37.621	-50.4784	170.844	49.6245	-74.7531	155.383	55.844	-105.054	144.05	46.8633	-128.189	219.967	11.5337	-127.698	211.619	15.388	-155.936	184.972	14.4564	-172.296	222.338	-16.929	-127.752	215.115	-18.6076	-161.023	181.621	-18.449	-187.059	210.917	-41.6081	-122.742	201.053	-44.9269	-152.559	180.065	-43.9729	-172.552	189.705	-59.8119	-104	174.046	-71.3763	-129.408	159.357	-70.4447	-150.799	213.274	-34.6187	-66.3745	215.393	-31.5981	-33.7816	219.704	0.922489	-54.2802	
83	0.691667	177.667	35.9853	-43.4682	154.582	48.8623	-70.6073	139.409	53.9528	-98.3264	132.786	44.1946	-125.632	217.652	31.1483	-117.744	208.011	37.9096	-151.04	181.565	32.4058	-169.791	228.7	2.6181	-121.613	222.488	1.6681	-156.927	195.482	-2.42013	-182.539	222.928	-20.3129	-117.137	218.787	-27.266	-146.981	196.351	-25.2157	-174.766	208.382	-49.2792	-108.644	197.906	-57.9709	-135.595	184.344	-60.2925	-155.359	221.602	-22.7551	-61.0645	217.588	-24.1279	-26.3592	217.586	13.286	-46.6027	
84	0.7	159.37	32.4144	-38.4309	138.229	37.9207	-65.3886	119.606	44.359	-95.9607	118.114	34.4359	-119.825	200.293	53.2081	-108.972	194.494	53.5357	-141.606	173.28	42.2959	-163.778	220.291	27.0748	-113.281	218.207	27.0079	-153.27	196.487	13.2866	-179.715	226.013	2.6649	-115.339	225.62	-6.28279	-144.594	203.352	-6.1273	-169.449	219.787	-30.9519	-101.486	216.361	-41.9422	-131.892	201.073	-41.5122	-155.09	219.301	-2.13694	-58.1663	216.755	-10.282	-25.141	204.204	22.5681	-41.5635	
85	0.708333	142.776	23.885	-35.52	119.86	25.845	-60.084	105.987	28.2366	-91.3887	102.678	24.4554	-118.1	178.47	59.6167	-97.7941	173.814	67.6304	-130.325	159.176	52.0987	-157.766	205.394	49.0873	-106.561	207.969	49.9915	-139.807	188.871	33.9822	-172.917	221.315	20.3404	-107.797	219.794	22.6081	-136.093	203.621	9.57893	-165.017	223.086	-9.43175	-101.78	222.925	-15.906	-129.603	204.96	-20.2345	-155.131	210.171	9.08139	-49.1986	207.549	-2.57543	-17.4706	187.276	26.5501	-30.7466	
86	0.716667	127.331	13.7888	-31.3078	104.526	11.4942	-54.6323	89.5288	16.1776	-88.5604	90.8051	12.746	-115.03	154.798	65.2984	-90.3478	149.832	72.778	-118.024	141.984	55.492	-151.443	185.953	59.997	-94.155	186.15	68.1697	-131.235	171.781	49.1697	-162.874	206.786	40.9511	-99.74	203.706	45.0537	-130.043	187.329	30.1547	-156.777	215.604	11.3065	-94.6214	216.374	11.5544	-126.347	203.797	2.94202	-149.323	198.889	18.3429	-46.1633	200.068	7.13082	-13.2471	170.089	30.8367	-27.6297	
87	0.725	117.803	4.51977	-24.7944	95.825	5.23092	-53.6976	78.7604	6.74624	-84.9005	84.0532	7.2462	-113.649	137.405	63.4447	-83.5304	129.381	72.8662	-111.026	119.628	59.2583	-140.864	164.99	65.6752	-88.8955	161.348	74.6702	-122.23	156.078	55.8455	-154.703	187.529	49.8383	-91.5324	187.932	54.4465	-123.192	172.812	38.5264	-148.538	205.113	20.9894	-90.0593	203.102	23.7766	-121.081	190.978	10.2724	-146.633	188.53	22.0667	-39.8063	187.94	9.1659	-12.7843	155.902	26.1043	-21.3786	
88	0.733333	109.384	-1.04918	-19.2398	84.3077	-2.71379	-46.2079	71.7705	-1.46942	-76.7567	75.2049	-1.30003	-105.665	123.597	56.9736	-80.2689	114.372	67.3607	-112.075	103.953	50.3176	-139.776	152.98	61.5439	-87.5737	147.502	70.7341	-120.035	136.467	51.764	-153.509	169.851	49.0825	-90.5108	168.76	53.7371	-122.171	158.19	33.2096	-149.44	189.337	22.5525	-86.1779	190.584	25.6167	-120.563	176.082	12.3549	-145.76	173.941	22.5172	-42.1976	177.182	11.5896	-11.5989	144.128	26.1295	-19.7559	
89	0.741667	102.201	-3.53372	-20.3749	79.2164	-10.1984	-41.5762	60.097	-9.81633	-72.1508	60.264	-13.2872	-96.9601	110.206	46.9007	-81.5355	98.4172	55.4127	-108.993	95.4825	40.4502	-142.653	139.525	50.8051	-88.9935	131.062	60.0789	-124.853	122.118	40.9495	-156.597	159.24	41.5265	-92.0283	160.236	45.3657	-121.178	146.233	31.5085	-149.37	182.9	16.1646	-87.5976	181.212	20.7106	-116.434	174.485	12.403	-143.314	168.619	17.0912	-39.6172	173.091	8.87012	-11.6701	134.041	24.3958	-21.1764	
90	0.75	95.4817	-8.8928	-15.8853	70.6724	-13.6246	-38.8151	49.9796	-15.1178	-67.2134	41.2434	-20.8117	-90.5279	98.8728	36.9934	-85.7979	93.0966	41.3163	-114.319	83.9986	31.5854	-143.219	131.74	39.1523	-92.8334	123.21	46.6185	-128.457	118.592	36.3735	-160.797	155.899	29.0664	-94.057	153.015	34.8317	-127.585	146.255	26.218	-157.548	175.895	6.17951	-87.8282	182.295	8.37288	-117.782	177.729	5.77649	-142.042	158.854	14.2132	-44.0672	163.221	6.28272	-7.87	126.638	20.2828	-22.429	
91	0.758333	94.9918	-11.514	-16.6993	66.1974	-16.6059	-35.7456	46.1187	-23.1541	-56.2981	28.1848	-27.5048	-76.1823	97.3601	23.5161	-92.4992	84.1685	26.5033	-120.912	77.8399	22.9188	-147.91	126.052	26.5612	-100.879	119.994	32.6388	-135.928	117.095	32.0356	-166.159	151.064	18.1261	-100.585	155.251	22.658	-130.068	150.29	24.5404	-155.945	177.458	-4.1644	-88.0098	182.744	-2.13981	-116.782	186.469	0.179584	-137.739	156.597	9.94698	-46.2975	162.02	5.39962	-11.095	123.652	13.9897	-22.9905	
92	0.766667	91.4236	-9.80073	-17.75	69.3344	-17.4988	-34.6196	41.0411	-21.6279	-52.8287	26.5136	-27.3151	-71.5917	93.1556	18.8076	-93.9038	82.2803	22.3224	-121.56	77.6569	22.4197	-147.969	124.737	23.4486	-102.713	118.276	28.1348	-134.595	121.991	32.0178	-162.838	150.094	14.1943	-101.551	155.52	18.1243	-124.3	157.64	25.7177	-157.178	177.935	-4.84717	-90.7729	182.439	-5.09302	-110.064	191.914	1.0962	-134.218	156.265	9.42281	-45.4456	162.102	6.76862	-10.5245	122.891	13.0538	-25.1127	
93	0.775	92.582	-9.05516	-16.9824	67.0157	-17.2045	-32.014	40.5476	-18.76	-55.8617	20.8118	-25.4628	-66.6909	95.0225	17.9895	-93.9912	82.9591	20.5903	-118.3	79.6223	22.7347	-148.389	124.02	22.3715	-100.769	123.937	27.7136	-136.137	120.987	33.0542	-164.744	152.654	13.1937	-102.061	156.606	16.5246	-124.295	156.321	24.4907	-150.173	177.357	-6.23469	-88.4919	187.246	-5.8966	-109.126	196.284	0.381544	-131.374	158.445	9.68906	-46.896	157.685	6.91747	-8.85971	122.717	16.9316	-28.0204	
94	0.783333	94.743	-10.5312	-13.7499	68.8371	-16.7807	-29.8084	40.138	-17.7428	-53.874	22.6666	-23.5709	-70.671	98.343	17.9496	-95.9802	86.5552	21.462	-121.914	76.9063	23.5416	-145.09	126.51	22.6801	-102.646	124.034	27.0999	-135.528	123.212	33.0344	-165.364	155.75	13.8865	-101.322	160.244	16.1479	-124.266	162.77	24.3972	-150.191	175.045	-6.53358	-85.8169	185.833	-5.63721	-109.507	198.698	1.99533	-131.78	158.543	8.18127	-45.7198	160.835	7.82687	-14.2997	122.351	16.7895	-23.3956	
